<?xml version="1.0" encoding="UTF-8"?>
<!DOCTYPE svg PUBLIC "-//W3C//DTD SVG 1.1//EN" "http://www.w3.org/Graphics/SVG/1.1/DTD/svg11.dtd">
<!-- Creator: CorelDRAW 2021.5 -->
<svg xmlns="http://www.w3.org/2000/svg" xml:space="preserve" width="51.1165mm" height="10.3313mm" version="1.1" style="shape-rendering:geometricPrecision; text-rendering:geometricPrecision; image-rendering:optimizeQuality; fill-rule:evenodd; clip-rule:evenodd"
viewBox="0 0 6305.5 1274.42"
 xmlns:xlink="http://www.w3.org/1999/xlink"
 xmlns:xodm="http://www.corel.com/coreldraw/odm/2003">
 <defs>
  <style type="text/css">
   <![CDATA[
    .fil4 {fill:#E61F42}
    .fil3 {fill:#0054A3}
    .fil0 {fill:#FEFEFE;fill-rule:nonzero}
    .fil2 {fill:#E61F42;fill-rule:nonzero}
    .fil1 {fill:#0054A3;fill-rule:nonzero}
    .fil5 {fill:#1D1819;fill-rule:nonzero}
   ]]>
  </style>
 </defs>
 <g id="Layer_x0020_1">
  <metadata id="CorelCorpID_0Corel-Layer"/>
  <g id="_1543538671776">
   <g>
    <g>
     <path class="fil0" d="M1139.51 1153.02c-239.41,142.64 -768.95,152.97 -1004.83,-0.37l-7.72 -5.02 -4.93 -7.64c-152.58,-235.53 -143.29,-764.62 -1.41,-1003.63l5.08 -8.56 8.45 -5.49c235.81,-153.31 765.35,-144.1 1004.83,-1.43l9.44 5.63 5.55 9.34c141.82,238.91 152.25,768.06 -0.35,1003.63l-5.43 8.38 -8.68 5.17z"/>
     <path id="_1" class="fil1" d="M128.64 1161.47l12.09 -17.64 0 0 22.38 13.56 24.02 12.64 25.57 11.76 26.99 10.87 28.33 9.97 29.54 9.05 30.64 8.17 31.65 7.25 32.53 6.37 33.31 5.48 33.97 4.58 34.53 3.69 34.98 2.82 35.3 1.92 35.55 1.07 35.67 0.21 35.67 -0.67 35.59 -1.52 35.38 -2.37 35.06 -3.21 34.64 -4.05 34.12 -4.87 33.47 -5.69 32.7 -6.51 31.86 -7.33 30.89 -8.13 29.8 -8.91 28.62 -9.7 27.3 -10.46 25.9 -11.21 24.38 -11.95 22.75 -12.69 11.37 18.08 -23.81 13.29 -25.36 12.45 -26.82 11.61 -28.16 10.78 -29.41 9.97 -30.54 9.13 -31.58 8.3 -32.5 7.48 -33.34 6.64 -34.06 5.81 -34.69 4.95 -35.21 4.12 -35.63 3.26 -35.92 2.39 -36.11 1.54 -36.22 0.67 -36.22 -0.21 -36.09 -1.07 -35.87 -1.97 -35.55 -2.85 -35.14 -3.76 -34.59 -4.68 -33.95 -5.58 -33.22 -6.49 -32.37 -7.43 -31.43 -8.36 -30.36 -9.33 -29.22 -10.26 -27.95 -11.26 -26.58 -12.22 -25.13 -13.24 -23.54 -14.25 0 0zm4.37 -22.66l7.72 5.02 -12.09 17.64 -7.72 -5.02 -3.17 -3.17 15.26 -14.47zm-12.09 17.64l-1.94 -1.26 -1.23 -1.91 3.17 3.17zm10.32 -22.11l4.93 7.64 -18.43 11.3 -4.93 -7.64 18.42 -11.31 0.01 0.01zm-0.01 -0.01l0.01 0.01 1.76 2.73 -1.78 -2.74zm-20.03 -1003.27l18.85 10.61 0 0 -12.63 22.73 -11.89 24.36 -11.16 25.89 -10.4 27.29 -9.62 28.59 -8.84 29.79 -8.04 30.88 -7.27 31.84 -6.44 32.7 -5.64 33.44 -4.81 34.1 -3.98 34.61 -3.15 35.06 -2.31 35.35 -1.47 35.56 -0.6 35.66 0.23 35.66 1.12 35.53 1.97 35.3 2.85 34.96 3.71 34.51 4.6 33.96 5.49 33.29 6.38 32.53 7.27 31.64 8.15 30.63 9.05 29.53 9.94 28.33 10.83 26.98 11.73 25.57 12.62 24.02 13.48 22.35 -18.4 11.32 -14.17 -23.49 -13.16 -25.05 -12.18 -26.53 -11.2 -27.89 -10.24 -29.15 -9.28 -30.3 -8.35 -31.37 -7.41 -32.31 -6.5 -33.15 -5.59 -33.91 -4.68 -34.53 -3.79 -35.06 -2.9 -35.5 -2 -35.82 -1.12 -36.02 -0.26 -36.16 0.63 -36.16 1.49 -36.06 2.33 -35.87 3.19 -35.55 4.03 -35.13 4.88 -34.64 5.74 -34.01 6.56 -33.27 7.39 -32.45 8.22 -31.52 9.07 -30.48 9.87 -29.33 10.69 -28.1 11.53 -26.76 12.36 -25.3 13.2 -23.75 0 0zm23.93 2.05l-5.08 8.56 -18.85 -10.61 5.08 -8.56 3.38 -3.52 15.47 14.12zm-18.85 -10.61l1.27 -2.15 2.11 -1.37 -3.38 3.52zm23.92 8.63l-8.45 5.49 -12.09 -17.64 8.45 -5.49 12.09 17.64zm1004.47 -19.29l-11.37 18.08 0 0 -22.75 -12.69 -24.38 -11.94 -25.9 -11.21 -27.32 -10.44 -28.62 -9.67 -29.8 -8.88 -30.89 -8.09 -31.86 -7.28 -32.71 -6.48 -33.47 -5.65 -34.11 -4.84 -34.65 -4 -35.06 -3.16 -35.38 -2.32 -35.58 -1.47 -35.7 -0.62 -35.66 0.26 -35.54 1.12 -35.33 1.97 -34.97 2.86 -34.53 3.75 -33.97 4.61 -33.31 5.53 -32.53 6.4 -31.64 7.3 -30.64 8.18 -29.54 9.09 -28.32 9.98 -27 10.89 -25.55 11.78 -24.03 12.64 -22.36 13.56 -12.09 -17.64 23.52 -14.25 25.12 -13.24 26.58 -12.25 27.94 -11.26 29.21 -10.3 30.36 -9.34 31.43 -8.4 32.36 -7.48 33.22 -6.53 33.95 -5.63 34.59 -4.71 35.12 -3.8 35.56 -2.91 35.87 -2.02 36.11 -1.12 36.2 -0.26 36.22 0.62 36.12 1.49 35.92 2.34 35.63 3.21 35.19 4.07 34.7 4.91 34.06 5.75 33.36 6.6 32.5 7.45 31.6 8.26 30.54 9.1 29.41 9.94 28.16 10.76 26.82 11.61 25.36 12.43 23.83 13.29 0 0zm-1.94 23.71l-9.44 -5.63 11.37 -18.08 9.44 5.63 3.74 3.73 -15.11 14.36zm11.37 -18.08l2.36 1.41 1.38 2.32 -3.74 -3.73zm-9.56 23.7l-5.55 -9.34 18.85 -10.63 5.55 9.34 0 0.01 -18.85 10.62zm18.28 1003.98l-18.4 -11.32 0 0 13.48 -22.36 12.61 -24 11.72 -25.57 10.81 -27 9.92 -28.31 9.03 -29.54 8.13 -30.64 7.23 -31.64 6.33 -32.53 5.45 -33.28 4.54 -33.97 3.68 -34.53 2.8 -34.96 1.92 -35.29 1.06 -35.54 0.19 -35.66 -0.65 -35.66 -1.5 -35.55 -2.37 -35.37 -3.19 -35.06 -4.03 -34.63 -4.85 -34.08 -5.67 -33.44 -6.49 -32.7 -7.28 -31.85 -8.09 -30.85 -8.87 -29.79 -9.65 -28.59 -10.41 -27.29 -11.18 -25.88 -11.89 -24.36 -12.63 -22.72 18.85 -10.61 13.2 23.73 12.36 25.3 11.55 26.74 10.71 28.08 9.89 29.33 9.09 30.48 8.24 31.52 7.43 32.44 6.61 33.27 5.77 34.01 4.92 34.63 4.08 35.14 3.24 35.55 2.39 35.86 1.53 36.07 0.68 36.16 -0.21 36.16 -1.06 36.03 -1.95 35.81 -2.85 35.5 -3.73 35.07 -4.64 34.54 -5.55 33.9 -6.45 33.15 -7.38 32.33 -8.33 31.36 -9.25 30.31 -10.21 29.15 -11.18 27.89 -12.16 26.53 -13.15 25.07 -14.17 23.5 0 0zm-23.83 -2.95l5.43 -8.38 18.4 11.32 -5.43 8.38 -3.53 3.38 -14.88 -14.7zm18.4 11.32l-1.34 2.08 -2.18 1.3 3.53 -3.38zm-23.56 -9.54l8.68 -5.17 11.35 18.08 -8.68 5.17 -11.36 -18.08 0.01 0z"/>
    </g>
    <g>
     <path class="fil2" d="M152.27 148.8l12.09 17.64 3.38 -3.52 -11.89 21.45 -11.21 23.07 -10.53 24.57 -9.81 25.99 -9.09 27.26 -8.35 28.45 -7.61 29.51 -6.85 30.48 -6.11 31.33 -5.33 32.07 -4.56 32.69 -3.77 33.22 -3 33.65 -2.2 33.95 -1.41 34.17 -0.59 34.24 0.2 34.23 1.02 34.12 1.84 33.9 2.64 33.54 3.49 33.1 4.31 32.57 5.14 31.89 5.98 31.12 6.81 30.25 7.66 29.26 8.5 28.16 9.34 26.95 10.18 25.62 11.02 24.21 11.84 22.67 12.66 21.03 -18.4 11.32 -13.37 -22.19 -12.38 -23.73 -11.46 -25.2 -10.55 -26.53 -9.63 -27.79 -8.72 -28.93 -7.86 -29.98 -6.96 -30.91 -6.11 -31.74 -5.24 -32.5 -4.38 -33.11 -3.54 -33.64 -2.69 -34.08 -1.86 -34.39 -1.02 -34.61 -0.22 -34.72 0.62 -34.74 1.43 -34.64 2.22 -34.44 3.05 -34.14 3.82 -33.74 4.64 -33.23 5.43 -32.62 6.2 -31.9 6.99 -31.07 7.78 -30.17 8.55 -29.14 9.34 -28 10.1 -26.78 10.9 -25.46 11.68 -24.03 12.48 -22.49 3.38 -3.52zm-3.38 3.52l1.27 -2.15 2.11 -1.37 -3.38 3.52zm976.8 -0.52l-18.85 10.61 3.74 3.74 -21.38 -11.9 -23.01 -11.23 -24.51 -10.52 -25.9 -9.83 -27.19 -9.09 -28.37 -8.35 -29.44 -7.62 -30.38 -6.87 -31.25 -6.09 -31.99 -5.34 -32.63 -4.56 -33.15 -3.77 -33.57 -3 -33.86 -2.21 -34.08 -1.41 -34.16 -0.62 -34.16 0.21 -34.03 1.02 -33.79 1.83 -33.48 2.68 -33.02 3.47 -32.47 4.32 -31.81 5.16 -31.05 5.97 -30.15 6.83 -29.17 7.66 -28.09 8.5 -26.88 9.35 -25.56 10.18 -24.13 11.03 -22.6 11.84 -20.98 12.68 -12.09 -17.64 22.17 -13.4 23.73 -12.43 25.16 -11.5 26.52 -10.57 27.77 -9.65 28.9 -8.75 29.94 -7.88 30.89 -6.98 31.71 -6.12 32.45 -5.25 33.08 -4.39 33.61 -3.54 34.02 -2.7 34.35 -1.88 34.58 -1.02 34.68 -0.21 34.7 0.62 34.6 1.43 34.4 2.23 34.11 3.05 33.69 3.85 33.19 4.64 32.58 5.44 31.86 6.22 31.05 7.02 30.14 7.8 29.11 8.57 27.98 9.36 26.77 10.15 25.42 10.92 24.02 11.72 22.49 12.52 3.74 3.74zm-3.74 -3.74l2.36 1.39 1.38 2.34 -3.74 -3.74zm0.53 977.76l-11.37 -18.08 -3.52 3.38 12.66 -21.03 11.83 -22.66 10.99 -24.21 10.16 -25.63 9.31 -26.95 8.47 -28.15 7.62 -29.26 6.78 -30.25 5.95 -31.12 5.09 -31.89 4.27 -32.55 3.43 -33.11 2.62 -33.54 1.78 -33.9 0.97 -34.12 0.15 -34.23 -0.64 -34.24 -1.46 -34.16 -2.26 -33.96 -3.03 -33.65 -3.82 -33.22 -4.6 -32.7 -5.37 -32.06 -6.14 -31.32 -6.9 -30.48 -7.64 -29.52 -8.39 -28.45 -9.1 -27.27 -9.83 -25.97 -10.53 -24.58 -11.24 -23.07 -11.89 -21.45 18.85 -10.61 12.48 22.49 11.68 24.03 10.93 25.45 10.13 26.78 9.35 28.01 8.59 29.14 7.81 30.16 7.04 31.07 6.24 31.89 5.46 32.63 4.68 33.22 3.87 33.74 3.08 34.14 2.28 34.43 1.48 34.65 0.67 34.74 -0.17 34.72 -0.97 34.61 -1.8 34.39 -2.66 34.08 -3.48 33.63 -4.34 33.12 -5.19 32.5 -6.07 31.74 -6.93 30.91 -7.82 29.98 -8.7 28.94 -9.61 27.79 -10.51 26.52 -11.46 25.2 -12.37 23.75 -13.37 22.19 -3.52 3.38zm3.52 -3.38l-1.36 2.1 -2.16 1.28 3.52 -3.38zm-976.36 0.53l18.4 -11.32 -3.16 -3.16 20.97 12.67 22.61 11.84 24.14 11 25.56 10.16 26.87 9.33 28.08 8.47 29.19 7.64 30.15 6.8 31.05 5.93 31.81 5.11 32.47 4.28 33.01 3.43 33.47 2.6 33.81 1.79 34.03 0.99 34.14 0.15 34.17 -0.65 34.08 -1.46 33.86 -2.26 33.55 -3.03 33.16 -3.82 32.62 -4.61 31.99 -5.38 31.25 -6.14 30.39 -6.9 29.43 -7.65 28.37 -8.39 27.19 -9.12 25.92 -9.84 24.51 -10.55 22.99 -11.24 21.39 -11.9 11.37 18.08 -22.48 12.52 -24 11.73 -25.45 10.94 -26.76 10.16 -27.98 9.39 -29.11 8.61 -30.12 7.82 -31.06 7.04 -31.86 6.27 -32.58 5.48 -33.18 4.69 -33.7 3.9 -34.1 3.08 -34.4 2.28 -34.6 1.48 -34.69 0.65 -34.69 -0.15 -34.58 -0.99 -34.35 -1.81 -34.03 -2.65 -33.6 -3.5 -33.08 -4.35 -32.45 -5.21 -31.71 -6.08 -30.89 -6.94 -29.95 -7.83 -28.91 -8.75 -27.75 -9.62 -26.52 -10.56 -25.18 -11.47 -23.72 -12.43 -22.18 -13.38 -3.16 -3.16zm3.16 3.16l-1.92 -1.25 -1.23 -1.91 3.16 3.16z"/>
    </g>
    <path class="fil3" d="M131.61 522.79c5.63,3.6 11.16,7.25 16.62,10.95 242.54,164.22 328.72,414.71 334.7,604.4 46.89,23.02 98.88,22.04 149.84,25.57 -12.27,-246.32 -91.53,-518.3 -370.46,-730.57 -21.9,-16.67 -45.04,-32.96 -69.45,-48.85 -30.42,46.92 -51.77,95.07 -61.25,138.49z"/>
    <path class="fil3" d="M303.63 257.22c30.48,20.75 59.11,41.99 85.98,63.68 319.74,257.99 391.46,575.92 408.31,817.25 -51.99,18.16 -96.86,25.57 -149.86,25.57 0,-146.57 -34.9,-303.31 -109.45,-442.87 -61.73,-115.6 -153.08,-219.23 -259.35,-302.64 -23.82,-18.69 -48.37,-36.37 -73.52,-52.94 8.77,-12.42 18.13,-24.7 28.09,-36.71 22.2,-26.83 45.8,-50.76 69.82,-71.34z"/>
    <path class="fil4" d="M813.2 155.98c-9.73,8.01 -24.3,20.17 -33.84,28.38 -86.89,74.93 -165.56,158.96 -235.29,252.88l7.77 11.11c32.18,35.88 60.63,72.41 85.79,109.28 69.51,-92.05 148.4,-176.4 236.46,-253.22 26.27,-22.89 54.94,-46.38 82.85,-67.96 -46.53,-38.44 -93.7,-68.38 -143.75,-80.48z"/>
    <path class="fil4" d="M651.08 577.85c68.04,-95.48 146.25,-182.36 237.13,-258.55 27.88,-23.36 53.7,-45.75 84.02,-67.06 34.88,31.26 70.31,66.11 97.87,108.31 -32.34,20.76 -63.27,46.1 -92.74,70.58 -96.65,80.27 -177.79,180.53 -243.44,300.79 -22.2,-51.38 -49.42,-103 -82.83,-154.07z"/>
    <path class="fil4" d="M746.97 765.14c56.11,-129.82 140.61,-232.99 245.14,-317.32 28.93,-23.33 59.38,-45.22 91.18,-65.83 11.21,18.85 21.5,38.51 30.7,58.88 12.15,26.88 22.03,52.51 29.49,79.68 -20.56,13.41 -40.12,29.06 -58.68,43.59 -151.69,118.72 -238.01,274.69 -270.48,461.36 -11.99,-82.61 -32.39,-170.82 -67.36,-260.35z"/>
   </g>
   <g>
    <path class="fil5" d="M1656.43 638.76l-80.35 0 0 -313.9 89.57 0c34.97,0 59.56,1.68 73.75,5.12 14.12,3.44 26.13,9.29 36.01,17.57 11.56,9.58 20.42,21.57 26.48,35.92 6.07,14.42 9.08,30.37 9.08,47.92 0,18.74 -3.01,35.21 -9,49.39 -6,14.27 -14.85,25.9 -26.56,35.06 -8.86,6.87 -19.32,11.78 -31.32,14.78 -12,3 -31.25,4.54 -57.66,4.54l-14.57 0 -15.43 0 0 103.61zm0 -172.54l16.31 0c20.56,0 34.91,-2.85 43.03,-8.49 8.13,-5.64 12.22,-15.22 12.22,-28.83 0,-13.17 -4.02,-22.54 -12,-28.1 -7.97,-5.56 -22.17,-8.34 -42.43,-8.34l-17.12 0 0 73.75zm243.15 172.54l0 -239.7 -70.25 0 0 -74.2 226.11 0 0 74.2 -70.25 0 0 239.7 -85.61 0zm133.17 -35.12c0,-12.15 4.1,-22.31 12.36,-30.59 8.2,-8.26 18.37,-12.43 30.59,-12.43 12.43,0 22.76,4.17 31.1,12.43 8.26,8.28 12.43,18.44 12.43,30.59 0,12.15 -4.17,22.39 -12.58,30.8 -8.34,8.41 -18.66,12.66 -30.95,12.66 -12.08,0 -22.17,-4.24 -30.52,-12.66 -8.26,-8.41 -12.43,-18.65 -12.43,-30.8zm284.49 35.12l0 -313.9 86.48 0 0 313.9 -86.48 0zm155.34 0l0 -313.9 82.54 0 118.69 161.41c2.27,3.29 6,9.95 11.19,19.91 5.27,9.87 10.98,21.72 17.27,35.49 -1.68,-13.03 -2.92,-24.58 -3.73,-34.76 -0.81,-10.18 -1.17,-19.17 -1.17,-27l0 -155.05 82.09 0 0 313.9 -82.09 0 -118.62 -162.08c-2.48,-3.29 -6.29,-9.95 -11.48,-19.82 -5.27,-9.95 -10.9,-21.66 -17.05,-35.13 1.68,13.17 2.92,24.81 3.73,34.98 0.81,10.16 1.17,19.17 1.17,27l0 155.05 -82.54 0zm374.06 0l0 -313.9 65.42 0c48.73,0 83.19,2.27 103.38,6.87 20.27,4.54 37.98,12.22 53.28,22.91 19.9,13.9 34.97,31.68 45.22,53.26 10.31,21.66 15.43,46.39 15.43,74.12 0,27.73 -5.12,52.39 -15.43,74.05 -10.25,21.66 -25.32,39.44 -45.22,53.34 -15.15,10.55 -32.42,18.08 -51.88,22.61 -19.39,4.47 -49.54,6.74 -90.37,6.74l-14.41 0 -65.42 0zm84.73 -70.24l14.33 0c33.59,0 58.17,-6.88 73.62,-20.71 15.43,-13.75 23.12,-35.64 23.12,-65.71 0,-30 -7.69,-51.94 -23.12,-66 -15.44,-13.98 -40.03,-21.01 -73.62,-21.01l-14.33 0 0 173.43zm573.89 -86.05c0,22.61 -4.17,43.75 -12.43,63.44 -8.28,19.75 -20.34,37.39 -36.23,52.97 -16.02,15.44 -34.32,27.3 -54.88,35.71 -20.55,8.34 -41.92,12.51 -64.02,12.51 -22.46,0 -43.98,-4.17 -64.47,-12.51 -20.49,-8.41 -38.49,-20.27 -54.07,-35.71 -16.17,-15.58 -28.4,-33.29 -36.81,-53.19 -8.34,-19.84 -12.51,-40.9 -12.51,-63.22 0,-22.46 4.17,-43.54 12.51,-63.37 8.41,-19.76 20.64,-37.46 36.81,-53.06 15.58,-15.43 33.58,-27.29 54.07,-35.7 20.49,-8.35 42,-12.52 64.47,-12.52 22.24,0 43.75,4.17 64.39,12.52 20.64,8.41 38.78,20.27 54.51,35.7 15.74,15.44 27.74,33.07 36.16,52.98 8.34,19.82 12.51,40.98 12.51,63.44zm-167.71 92.2c23.71,0 43.32,-8.71 58.83,-26.13 15.52,-17.48 23.28,-39.51 23.28,-66.07 0,-26.27 -7.83,-48.22 -23.56,-65.86 -15.74,-17.55 -35.27,-26.34 -58.54,-26.34 -23.71,0 -43.31,8.78 -58.83,26.26 -15.51,17.49 -23.26,39.51 -23.26,65.93 0,26.85 7.61,48.95 22.89,66.22 15.3,17.34 35.06,25.98 59.2,25.98zm235.25 -37.32c12.73,14.41 25.25,25.16 37.61,32.34 12.37,7.09 24.66,10.68 36.96,10.68 11.41,0 20.85,-3.08 28.16,-9.23 7.39,-6.14 11.05,-13.9 11.05,-23.34 0,-10.39 -3.15,-18.44 -9.51,-24.08 -6.37,-5.63 -20.71,-11.48 -43.1,-17.48 -30.73,-8.28 -52.54,-19.11 -65.27,-32.34 -12.73,-13.32 -19.1,-31.54 -19.1,-54.66 0,-30.07 10.02,-54.52 30.15,-73.47 20.05,-18.95 46.17,-28.38 78.15,-28.38 17.34,0 33.73,2.33 49.24,6.94 15.51,4.69 30.22,11.71 44.12,21.14l-26.85 61.47c-9.73,-8.26 -19.69,-14.48 -29.93,-18.73 -10.18,-4.17 -20.27,-6.3 -30.3,-6.3 -10.25,0 -18.59,2.49 -25.03,7.4 -6.44,4.9 -9.66,11.26 -9.66,18.95 0,7.83 2.79,14.12 8.41,18.87 5.64,4.69 16.54,9.23 32.64,13.47l3.87 1.1c34.91,9.44 57.88,19.75 68.86,31.1 7.46,7.69 13.1,16.97 16.97,27.73 3.89,10.83 5.79,22.76 5.79,35.92 0,33.29 -10.9,60.07 -32.78,80.28 -21.88,20.27 -51.08,30.36 -87.52,30.36 -21.87,0 -41.78,-3.73 -59.78,-11.11 -17.92,-7.46 -35.19,-19.1 -51.74,-34.98l38.56 -63.65zm321.45 101.41l-80.35 0 0 -313.9 89.57 0c34.97,0 59.57,1.68 73.75,5.12 14.12,3.44 26.13,9.29 36.01,17.57 11.56,9.58 20.42,21.57 26.48,35.92 6.07,14.42 9.08,30.37 9.08,47.92 0,18.74 -3.01,35.21 -9,49.39 -6,14.27 -14.85,25.9 -26.56,35.06 -8.86,6.87 -19.32,11.78 -31.32,14.78 -12,3 -31.25,4.54 -57.66,4.54l-14.57 0 -15.43 0 0 103.61zm0 -172.54l16.31 0c20.56,0 34.91,-2.85 43.03,-8.49 8.13,-5.64 12.22,-15.22 12.22,-28.83 0,-13.17 -4.02,-22.54 -12,-28.1 -7.97,-5.56 -22.17,-8.34 -42.43,-8.34l-17.12 0 0 73.75zm197.92 172.54l0 -313.9 89.57 0c34.97,0 59.41,1.6 73.17,4.82 13.75,3.22 25.68,8.63 35.7,16.17 11.27,8.56 19.98,19.54 26.05,32.79 6.07,13.31 9.08,27.94 9.08,43.98 0,24.29 -6.01,44.05 -17.94,59.26 -12,15.22 -29.41,25.32 -52.32,30.3l85.61 126.59 -96.59 0 -72 -122.92 0 122.92 -80.34 0zm80.34 -165.52l15.81 0c18.43,0 31.9,-3.15 40.39,-9.44 8.49,-6.29 12.73,-16.17 12.73,-29.56 0,-15.74 -3.95,-26.93 -11.85,-33.59 -7.97,-6.66 -21.22,-9.95 -39.95,-9.95l-17.12 0 0 82.54zm203.35 165.52l0 -313.9 86.48 0 0 313.9 -86.48 0zm155.34 0l0 -313.9 82.54 0 118.69 161.41c2.27,3.29 6,9.95 11.19,19.91 5.27,9.87 10.98,21.72 17.27,35.49 -1.68,-13.03 -2.92,-24.58 -3.73,-34.76 -0.81,-10.18 -1.17,-19.17 -1.17,-27l0 -155.05 82.09 0 0 313.9 -82.09 0 -118.62 -162.08c-2.48,-3.29 -6.29,-9.95 -11.48,-19.82 -5.27,-9.95 -10.9,-21.66 -17.05,-35.13 1.68,13.17 2.92,24.81 3.73,34.98 0.81,10.16 1.17,19.17 1.17,27l0 155.05 -82.54 0zm523.34 -115.46l0 -65.86 168.15 0c0.15,2.12 0.3,4.54 0.37,7.11 0.06,2.55 0.06,6.29 0.06,11.34 0,54 -14.26,95.86 -42.8,125.64 -28.46,29.78 -68.63,44.7 -120.36,44.7 -25.4,0 -48.08,-3.8 -67.83,-11.48 -19.84,-7.61 -37.46,-19.32 -53.06,-35.05 -14.85,-15 -26.41,-32.71 -34.69,-53.28 -8.19,-20.49 -12.29,-41.93 -12.29,-64.39 0,-23.41 4.02,-45 12,-64.61 7.97,-19.68 19.97,-37.32 35.77,-53.04 15.74,-15.3 33.81,-26.85 54.15,-34.76 20.42,-7.82 42.36,-11.78 65.93,-11.78 30.73,0 57.95,6.08 81.59,18.22 23.62,12.15 43.53,30.22 59.7,54.23l-74.2 35.56c-8.86,-12.15 -18.87,-21.16 -29.93,-27.08 -11.13,-5.93 -23.49,-8.93 -37.24,-8.93 -25.62,0 -45.81,8.56 -60.52,25.61 -14.7,17.12 -22.09,40.4 -22.09,70.03 0,29.85 7.39,53.34 22.09,70.46 14.7,17.2 34.9,25.76 60.52,25.76 21.72,0 39.87,-5.34 54.36,-15.95 14.56,-10.61 23.04,-24.73 25.46,-42.43l-85.16 0zm403.4 115.46l0 -239.7 -70.25 0 0 -74.2 226.11 0 0 74.2 -70.25 0 0 239.7 -85.61 0zm260.56 -108c0,16.83 4.39,30.15 13.17,39.88 8.78,9.73 20.92,14.56 36.37,14.56 15.58,0 27.8,-4.82 36.66,-14.48 8.84,-9.66 13.31,-22.98 13.31,-39.95 0,-16.84 -4.47,-30.15 -13.38,-39.88 -8.93,-9.73 -21.16,-14.57 -36.59,-14.57 -15.44,0 -27.58,4.84 -36.37,14.57 -8.78,9.73 -13.17,23.04 -13.17,39.88zm-67.76 -224.35l72.88 0 0 113.19c0,9.15 -0.15,16.76 -0.51,22.83 -0.37,6.14 -0.88,11.41 -1.62,15.8 8.86,-15.43 19.02,-26.48 30.52,-33.07 11.48,-6.59 26.48,-9.88 44.93,-9.88 28.83,0 52.24,10.62 70.16,31.84 17.94,21.22 26.85,49.1 26.85,83.56 0,35.56 -8.99,63.87 -27.06,84.88 -18.07,21 -42.3,31.53 -72.59,31.53 -14.85,0 -28.31,-3.58 -40.46,-10.83 -12.15,-7.17 -23.04,-18.07 -32.78,-32.63l0 35.12 -70.32 0 0 -332.34zm289.84 332.34l0 -332.34 75.07 0 0 210.44 78.66 -94.54 94.76 0 -97.33 104.12 106.1 112.32 -100.53 0 -81.66 -96.22 0 96.22 -75.07 0zm278.43 -35.12c0,-12.15 4.1,-22.31 12.36,-30.59 8.19,-8.26 18.37,-12.43 30.59,-12.43 12.43,0 22.75,4.17 31.1,12.43 8.26,8.28 12.43,18.44 12.43,30.59 0,12.15 -4.17,22.39 -12.58,30.8 -8.34,8.41 -18.66,12.66 -30.95,12.66 -12.08,0 -22.18,-4.24 -30.52,-12.66 -8.26,-8.41 -12.43,-18.65 -12.43,-30.8z"/>
    <path class="fil5" d="M2573.66 834.17c-0.32,-1.3 -0.83,-4.88 -1.49,-10.74 -0.62,-4.88 -1.17,-8.94 -1.6,-12.15 -0.7,3.82 -1.68,7.66 -2.92,11.45 -1.26,3.82 -2.85,7.7 -4.77,11.68l-43.83 89.31 -43.84 -91.15c-1.84,-3.75 -3.44,-7.34 -4.76,-10.86 -1.33,-3.52 -2.5,-6.99 -3.48,-10.44 -0.09,3.52 -0.36,7.19 -0.86,11.05 -0.51,3.87 -1.25,7.89 -2.22,12.08l-17.97 82.51 -25.09 0 39.62 -174.65 49.47 105.76c0.74,1.64 1.91,4.45 3.47,8.33 1.57,3.91 3.44,8.71 5.67,14.42 1.6,-4.81 4.13,-10.9 7.57,-18.29 0.9,-1.99 1.6,-3.52 2.04,-4.56l48.33 -105.65 40.51 174.65 -25.31 0 -18.52 -82.75zm168.03 32.11l-86.73 0c0.62,10.16 3.63,18.1 9.07,23.8 5.39,5.71 12.62,8.56 21.64,8.56 8.02,0 14.69,-1.68 20.01,-5.05 5.35,-3.36 10,-8.78 13.99,-16.28l20.86 11.68c-6.09,10.94 -13.63,19.02 -22.66,24.38 -8.98,5.35 -19.58,8.01 -31.69,8.01 -17.42,0 -31.25,-5.3 -41.57,-15.9 -10.28,-10.62 -15.43,-24.77 -15.43,-42.47 0,-17.04 5.32,-30.97 15.99,-41.95 10.62,-10.94 24.3,-16.42 41.02,-16.42 17.47,0 31.11,5.01 40.87,15.01 9.77,9.95 14.65,23.98 14.65,41.95l0 4.69zm-25.78 -16.64c-0.97,-7.77 -3.95,-13.72 -8.91,-17.78 -4.97,-4.11 -11.77,-6.13 -20.37,-6.13 -8.17,0 -14.73,1.99 -19.69,5.93 -4.92,3.98 -8.4,9.97 -10.39,17.97l59.35 0zm76.46 67.28l-24.84 0 0 -108.53 23.36 0 0 17.81c4.96,-7.59 10.58,-13.13 16.88,-16.6 6.29,-3.48 13.72,-5.21 22.27,-5.21 8.49,0 15.52,1.76 21.07,5.32 5.59,3.55 9.81,8.99 12.69,16.26 5.75,-7.5 11.84,-12.98 18.28,-16.41 6.45,-3.44 13.79,-5.17 22.04,-5.17 7.14,0 13.4,1.33 18.75,3.95 5.35,2.66 9.5,6.49 12.46,11.53 1.41,2.34 2.43,5.19 3.05,8.47 0.67,3.28 0.99,7.97 0.99,14.06l0 8.72 0 65.79 -24.86 0 0 -55.71c0,-14.58 -1.57,-24.19 -4.65,-28.8 -3.08,-4.6 -8.6,-6.91 -16.52,-6.91 -9.77,0 -16.73,3.12 -20.87,9.34 -4.18,6.2 -6.25,17.11 -6.25,32.66l0 49.42 -25.08 0 0 -55.71c0,-13.45 -1.6,-22.75 -4.85,-27.94 -3.24,-5.19 -8.87,-7.77 -16.8,-7.77 -4.88,0 -9.34,1.09 -13.36,3.32 -4.06,2.23 -7.27,5.28 -9.65,9.14 -1.53,2.54 -2.58,5.63 -3.21,9.26 -0.58,3.68 -0.9,10.42 -0.9,20.28l0 49.42zm204.3 -54.62c0,11.1 2.85,20.05 8.56,26.84 5.66,6.8 13,10.2 22.03,10.2 9.38,0 16.64,-3.12 21.8,-9.41 5.16,-6.25 7.73,-15.16 7.73,-26.69 0,-11.45 -2.69,-20.43 -8.08,-26.88 -5.35,-6.44 -12.74,-9.68 -22.15,-9.68 -9.38,0 -16.68,3.12 -21.96,9.41 -5.28,6.25 -7.93,15 -7.93,26.21zm0.83 -122.84l0 86.62c2.89,-6.83 7.54,-12.11 13.9,-15.86 6.37,-3.71 13.99,-5.59 22.86,-5.59 14.42,0 26.14,5.32 35.12,15.99 8.96,10.62 13.45,24.61 13.45,41.92 0,18.26 -4.42,32.63 -13.25,43.1 -8.78,10.51 -20.9,15.74 -36.22,15.74 -7.66,0 -14.42,-1.52 -20.35,-4.56 -5.9,-3.05 -11.1,-7.7 -15.51,-13.91l0 14.03 -24.86 0 0 -177.46 24.86 0zm216.13 126.82l-86.73 0c0.62,10.16 3.63,18.1 9.05,23.8 5.4,5.71 12.62,8.56 21.65,8.56 8.01,0 14.69,-1.68 20.01,-5.05 5.35,-3.36 10,-8.78 13.99,-16.28l20.86 11.68c-6.09,10.94 -13.63,19.02 -22.66,24.38 -8.98,5.35 -19.58,8.01 -31.69,8.01 -17.42,0 -31.26,-5.3 -41.57,-15.9 -10.28,-10.62 -15.43,-24.77 -15.43,-42.47 0,-17.04 5.32,-30.97 15.99,-41.95 10.62,-10.94 24.3,-16.42 41.02,-16.42 17.47,0 31.1,5.01 40.87,15.01 9.77,9.95 14.65,23.98 14.65,41.95l0 4.69zm-25.78 -16.64c-0.99,-7.77 -3.95,-13.72 -8.92,-17.78 -4.96,-4.11 -11.76,-6.13 -20.35,-6.13 -8.17,0 -14.73,1.99 -19.69,5.93 -4.92,3.98 -8.4,9.97 -10.4,17.97l59.36 0zm76.46 -23.91c2.7,-7.19 6.22,-12.51 10.58,-15.94 4.42,-3.44 9.86,-5.17 16.37,-5.17 3.53,0 6.96,0.43 10.36,1.26 3.39,0.81 6.76,2.07 10.04,3.63l-8.96 21.14c-2.15,-1.53 -4.45,-2.65 -6.91,-3.37 -2.5,-0.74 -5.28,-1.09 -8.33,-1.09 -8.28,0 -14.19,3.28 -17.78,9.88 -3.59,6.6 -5.39,17.7 -5.39,33.26l0 47.58 -24.84 0 0 -108.76 24.84 0 0 17.58zm217.55 37.27c0,-10.08 -3.24,-18.63 -9.73,-25.62 -6.49,-6.99 -14.42,-10.47 -23.8,-10.47 -9.3,0 -17.23,3.48 -23.76,10.47 -6.53,6.99 -9.77,15.54 -9.77,25.62 0,10.09 3.24,18.64 9.77,25.63 6.53,6.99 14.46,10.47 23.76,10.47 9.3,0 17.23,-3.48 23.76,-10.47 6.53,-6.99 9.77,-15.54 9.77,-25.63zm-93.31 -0.23c0,-7.93 1.53,-15.43 4.53,-22.46 3.01,-7.07 7.35,-13.36 12.98,-18.82 5.59,-5.44 11.99,-9.57 19.26,-12.51 7.28,-2.89 14.85,-4.34 22.78,-4.34 8.17,0 15.86,1.46 23.09,4.34 7.19,2.94 13.67,7.19 19.42,12.82 5.7,5.59 10.04,11.88 13.05,18.91 2.97,6.99 4.45,14.37 4.45,22.07 0,8.02 -1.48,15.56 -4.42,22.55 -2.92,7.03 -7.23,13.25 -12.89,18.68 -5.95,5.7 -12.55,10.04 -19.81,12.96 -7.23,2.94 -14.89,4.42 -22.89,4.42 -7.86,0 -15.43,-1.48 -22.66,-4.42 -7.27,-2.92 -13.72,-7.18 -19.38,-12.73 -5.7,-5.66 -10.04,-11.99 -13.05,-19.03 -2.97,-6.99 -4.45,-14.49 -4.45,-22.43zm149.28 54.15l0 -86.73 -19.02 0 0 -21.8 19.02 0 0 -29.11c0,-14.38 3.01,-25 8.99,-31.89 5.97,-6.83 15.27,-10.28 27.85,-10.28 2.7,0 5.43,0.2 8.24,0.59 2.86,0.35 5.71,0.97 8.6,1.8l0 22.38c-1.99,-1.12 -3.98,-1.99 -6.02,-2.58 -1.99,-0.58 -4.06,-0.85 -6.09,-0.85 -5.97,0 -10.24,1.84 -12.82,5.5 -2.62,3.68 -3.9,9.84 -3.9,18.56l0 25.87 26.09 0 0 21.8 -26.09 0 0 86.73 -24.86 0zm141.6 0l0 -167.6 27.19 0 0 167.6 -27.19 0zm64.27 0l0 -108.53 23.36 0 0 17.81c4.96,-7.5 10.78,-12.98 17.5,-16.41 6.72,-3.44 14.89,-5.17 24.54,-5.17 8.08,0 14.96,1.3 20.66,3.84 5.67,2.58 10.13,6.37 13.32,11.41 1.92,2.96 3.28,6.44 4.14,10.42 0.83,3.95 1.25,10.9 1.25,20.83l0 65.79 -25.08 0 0 -55.71c0,-14.26 -1.71,-23.76 -5.19,-28.45 -3.48,-4.69 -9.65,-7.03 -18.52,-7.03 -5.79,0 -10.98,1.05 -15.52,3.21 -4.53,2.15 -8.13,5.16 -10.71,9.02 -1.84,2.62 -3.12,5.95 -3.82,10.04 -0.74,4.07 -1.1,10.55 -1.1,19.5l0 49.42 -24.84 0zm215.86 -54.62c0,-11.21 -2.62,-19.96 -7.86,-26.21 -5.23,-6.29 -12.53,-9.41 -21.91,-9.41 -9.42,0 -16.8,3.24 -22.15,9.68 -5.39,6.45 -8.09,15.43 -8.09,26.88 0,11.53 2.58,20.44 7.77,26.69 5.21,6.29 12.55,9.41 22.01,9.41 8.98,0 16.28,-3.4 21.87,-10.16 5.55,-6.75 8.36,-15.7 8.36,-26.88zm-0.7 -122.84l24.86 0 0 177.46 -24.86 0 0 -14.03c-4.42,6.22 -9.61,10.87 -15.51,13.91 -5.95,3.05 -12.71,4.56 -20.35,4.56 -15.32,0 -27.43,-5.23 -36.23,-15.74 -8.82,-10.47 -13.24,-24.84 -13.24,-43.1 0,-17.31 4.49,-31.3 13.52,-41.92 9.02,-10.67 20.79,-15.99 35.28,-15.99 8.87,0 16.44,1.84 22.73,5.55 6.29,3.68 10.9,8.99 13.79,15.9l0 -86.62zm144.4 123.54c0,-10.08 -3.23,-18.63 -9.72,-25.62 -6.49,-6.99 -14.42,-10.47 -23.8,-10.47 -9.3,0 -17.23,3.48 -23.76,10.47 -6.53,6.99 -9.77,15.54 -9.77,25.62 0,10.09 3.24,18.64 9.77,25.63 6.53,6.99 14.46,10.47 23.76,10.47 9.3,0 17.23,-3.48 23.76,-10.47 6.53,-6.99 9.76,-15.54 9.76,-25.63zm-93.29 -0.23c0,-7.93 1.52,-15.43 4.53,-22.46 3.01,-7.07 7.35,-13.36 12.98,-18.82 5.59,-5.44 11.99,-9.57 19.26,-12.51 7.27,-2.89 14.85,-4.34 22.78,-4.34 8.17,0 15.86,1.46 23.09,4.34 7.19,2.94 13.67,7.19 19.42,12.82 5.7,5.59 10.04,11.88 13.05,18.91 2.97,6.99 4.45,14.37 4.45,22.07 0,8.02 -1.48,15.56 -4.42,22.55 -2.94,7.03 -7.23,13.25 -12.89,18.68 -5.95,5.7 -12.55,10.04 -19.81,12.96 -7.23,2.94 -14.89,4.42 -22.89,4.42 -7.86,0 -15.43,-1.48 -22.66,-4.42 -7.27,-2.92 -13.72,-7.18 -19.38,-12.73 -5.71,-5.66 -10.04,-11.99 -13.05,-19.03 -2.97,-6.99 -4.45,-14.49 -4.45,-22.43zm169.8 -0.47c0,11.26 2.81,20.24 8.44,26.97 5.59,6.72 12.98,10.08 22.15,10.08 9.38,0 16.64,-3.12 21.8,-9.41 5.16,-6.25 7.75,-15.16 7.75,-26.69 0,-11.45 -2.7,-20.43 -8.09,-26.88 -5.35,-6.44 -12.74,-9.68 -22.15,-9.68 -9.38,0 -16.68,3.12 -21.96,9.41 -5.28,6.25 -7.93,15 -7.93,26.21zm-24.03 105.73l0 -159.63 24.86 0 0 17.69c2.89,-6.83 7.54,-12.11 13.9,-15.86 6.37,-3.71 13.99,-5.59 22.86,-5.59 14.42,0 26.14,5.32 35.12,15.99 8.96,10.62 13.45,24.61 13.45,41.92 0,18.26 -4.42,32.63 -13.25,43.1 -8.78,10.51 -20.9,15.74 -36.22,15.74 -7.66,0 -14.42,-1.52 -20.35,-4.56 -5.9,-3.05 -11.1,-7.7 -15.51,-13.91l0 65.13 -24.86 0zm161.29 -142.29c2.69,-7.19 6.2,-12.51 10.58,-15.94 4.42,-3.44 9.84,-5.17 16.37,-5.17 3.52,0 6.96,0.43 10.36,1.26 3.39,0.81 6.76,2.07 10.04,3.63l-8.96 21.14c-2.15,-1.53 -4.45,-2.65 -6.91,-3.37 -2.5,-0.74 -5.28,-1.09 -8.33,-1.09 -8.28,0 -14.19,3.28 -17.78,9.88 -3.6,6.6 -5.39,17.7 -5.39,33.26l0 47.58 -24.86 0 0 -108.76 24.86 0 0 17.58zm59.35 -64.23c0,-4.18 1.57,-7.82 4.65,-10.9 3.08,-3.05 6.76,-4.56 11.05,-4.56 4.42,0 8.13,1.48 11.06,4.4 2.92,2.94 4.4,6.65 4.4,11.06 0,4.45 -1.48,8.17 -4.45,11.18 -3.01,3.01 -6.67,4.53 -11.02,4.53 -4.29,0 -7.97,-1.57 -11.05,-4.65 -3.08,-3.08 -4.65,-6.76 -4.65,-11.05zm3.28 155.42l0 -108.53 24.84 0 0 108.53 -24.84 0zm85.14 0l-24.86 0 0 -108.53 23.36 0 0 17.81c4.96,-7.59 10.58,-13.13 16.88,-16.6 6.29,-3.48 13.72,-5.21 22.28,-5.21 8.47,0 15.51,1.76 21.06,5.32 5.59,3.55 9.81,8.99 12.69,16.26 5.75,-7.5 11.84,-12.98 18.29,-16.41 6.44,-3.44 13.79,-5.17 22.03,-5.17 7.15,0 13.4,1.33 18.75,3.95 5.35,2.66 9.5,6.49 12.47,11.53 1.41,2.34 2.42,5.19 3.05,8.47 0.67,3.28 0.97,7.97 0.97,14.06l0 8.72 0 65.79 -24.86 0 0 -55.71c0,-14.58 -1.55,-24.19 -4.64,-28.8 -3.1,-4.6 -8.6,-6.91 -16.53,-6.91 -9.77,0 -16.73,3.12 -20.87,9.34 -4.17,6.2 -6.24,17.11 -6.24,32.66l0 49.42 -25.09 0 0 -55.71c0,-13.45 -1.6,-22.75 -4.84,-27.94 -3.24,-5.19 -8.87,-7.77 -16.8,-7.77 -4.88,0 -9.34,1.09 -13.37,3.32 -4.06,2.23 -7.27,5.28 -9.65,9.14 -1.52,2.54 -2.58,5.63 -3.21,9.26 -0.58,3.68 -0.89,10.42 -0.89,20.28l0 49.42zm282.47 0l-24.84 0 0 -14.03c-4.42,6.22 -9.61,10.87 -15.52,13.91 -5.93,3.05 -12.69,4.56 -20.35,4.56 -15.32,0 -27.42,-5.23 -36.22,-15.74 -8.83,-10.47 -13.25,-24.84 -13.25,-43.1 0,-17.31 4.5,-31.3 13.52,-41.92 9.03,-10.67 20.79,-15.99 35.28,-15.99 8.87,0 16.46,1.84 22.75,5.55 6.29,3.68 10.89,8.99 13.79,15.9l0 -17.69 24.84 0 0 108.53zm-24.14 -54.62c0,-11.21 -2.63,-19.96 -7.86,-26.21 -5.23,-6.29 -12.55,-9.41 -21.92,-9.41 -9.41,0 -16.8,3.24 -22.15,9.68 -5.39,6.45 -8.08,15.43 -8.08,26.88 0,11.53 2.58,20.44 7.77,26.69 5.19,6.29 12.55,9.41 21.99,9.41 8.96,0 16.22,-3.4 21.81,-10.2 5.63,-6.8 8.44,-15.74 8.44,-26.84zm207.19 0c0,-11.21 -2.62,-19.96 -7.86,-26.21 -5.23,-6.29 -12.53,-9.41 -21.92,-9.41 -9.41,0 -16.8,3.24 -22.14,9.68 -5.4,6.45 -8.09,15.43 -8.09,26.88 0,11.53 2.58,20.44 7.77,26.69 5.19,6.29 12.55,9.41 21.99,9.41 8.96,0 16.22,-3.4 21.81,-10.2 5.63,-6.8 8.44,-15.74 8.44,-26.84zm24.14 47.9c0,21.22 -4.22,36.14 -12.69,44.82 -8.47,8.68 -22.78,13.01 -42.87,13.01 -14.96,0 -26.92,-3.16 -35.82,-9.5 -8.94,-6.29 -13.48,-14.68 -13.63,-25.19l26.68 -0.12c0.39,4.69 2.58,8.29 6.53,10.74 3.98,2.47 9.57,3.68 16.71,3.68 10.63,0 18.26,-2.34 22.89,-6.99 4.69,-4.65 7.04,-12.47 7.12,-23.36l0.23 -14.38c-4.42,6.22 -9.61,10.87 -15.52,13.91 -5.93,3.05 -12.69,4.56 -20.35,4.56 -15.31,0 -27.42,-5.23 -36.22,-15.74 -8.83,-10.47 -13.24,-24.84 -13.24,-43.1 0,-17.31 4.49,-31.3 13.51,-41.92 9.03,-10.67 20.79,-15.99 35.28,-15.99 8.87,0 16.46,1.84 22.75,5.55 6.29,3.68 10.9,8.99 13.79,15.9l0 -17.69 24.84 0 0 101.81zm59.07 -84.46c2.7,-7.19 6.22,-12.51 10.6,-15.94 4.42,-3.44 9.84,-5.17 16.37,-5.17 3.52,0 6.94,0.43 10.35,1.26 3.4,0.81 6.76,2.07 10.04,3.63l-8.94 21.14c-2.15,-1.53 -4.45,-2.65 -6.92,-3.37 -2.5,-0.74 -5.27,-1.09 -8.33,-1.09 -8.28,0 -14.17,3.28 -17.78,9.88 -3.59,6.6 -5.39,17.7 -5.39,33.26l0 47.58 -24.84 0 0 -108.76 24.84 0 0 17.58zm146.79 37.27c0,-10.08 -3.24,-18.63 -9.73,-25.62 -6.49,-6.99 -14.42,-10.47 -23.8,-10.47 -9.3,0 -17.23,3.48 -23.75,10.47 -6.53,6.99 -9.77,15.54 -9.77,25.62 0,10.09 3.24,18.64 9.77,25.63 6.51,6.99 14.44,10.47 23.75,10.47 9.3,0 17.23,-3.48 23.76,-10.47 6.53,-6.99 9.77,-15.54 9.77,-25.63zm-93.31 -0.23c0,-7.93 1.53,-15.43 4.54,-22.46 3.01,-7.07 7.34,-13.36 12.96,-18.82 5.59,-5.44 12,-9.57 19.27,-12.51 7.27,-2.89 14.84,-4.34 22.77,-4.34 8.17,0 15.86,1.46 23.09,4.34 7.19,2.94 13.68,7.19 19.42,12.82 5.71,5.59 10.04,11.88 13.05,18.91 2.97,6.99 4.45,14.37 4.45,22.07 0,8.02 -1.48,15.56 -4.42,22.55 -2.92,7.03 -7.23,13.25 -12.89,18.68 -5.93,5.7 -12.55,10.04 -19.81,12.96 -7.23,2.94 -14.88,4.42 -22.89,4.42 -7.85,0 -15.43,-1.48 -22.66,-4.42 -7.27,-2.92 -13.72,-7.18 -19.38,-12.73 -5.7,-5.66 -10.04,-11.99 -13.05,-19.03 -2.96,-6.99 -4.45,-14.49 -4.45,-22.43zm169.92 -54.38l0 61.18c0,10.51 2.18,18.08 6.53,22.66 4.33,4.56 11.37,6.87 21.13,6.87 9.77,0 16.8,-2.31 21.14,-6.87 4.33,-4.58 6.53,-12.15 6.53,-22.66l0 -61.18 24.84 0 0 53.72c0,20.74 -4.14,35.82 -12.46,45.2 -8.33,9.38 -21.61,14.06 -39.82,14.06 -18.52,0 -31.96,-4.65 -40.28,-13.94 -8.33,-9.3 -12.47,-24.42 -12.47,-45.32l0 -53.72 24.86 0zm137.68 53.91c0,11.26 2.81,20.24 8.45,26.97 5.58,6.72 12.96,10.08 22.14,10.08 9.39,0 16.65,-3.12 21.81,-9.41 5.16,-6.25 7.73,-15.16 7.73,-26.69 0,-11.45 -2.7,-20.43 -8.09,-26.88 -5.35,-6.44 -12.73,-9.68 -22.15,-9.68 -9.38,0 -16.68,3.12 -21.96,9.41 -5.27,6.25 -7.93,15 -7.93,26.21zm-24.02 105.73l0 -159.63 24.84 0 0 17.69c2.89,-6.83 7.54,-12.11 13.91,-15.86 6.37,-3.71 13.98,-5.59 22.85,-5.59 14.42,0 26.14,5.32 35.13,15.99 8.94,10.62 13.43,24.61 13.43,41.92 0,18.26 -4.42,32.63 -13.24,43.1 -8.8,10.51 -20.91,15.74 -36.22,15.74 -7.66,0 -14.42,-1.52 -20.37,-4.56 -5.9,-3.05 -11.09,-7.7 -15.51,-13.91l0 65.13 -24.84 0z"/>
   </g>
  </g>
 </g>
</svg>
